<svg width="166" height="139" viewBox="0 0 166 139" fill="none" xmlns="http://www.w3.org/2000/svg">
<path d="M21.1094 89.9108C33.5508 89.9108 42.2187 97.3551 42.2187 111.112C42.2187 124.869 34.9474 132.313 21.1094 132.313C8.26986 132.313 0.00012207 123.367 0.00012207 111.112C0.00012207 98.8563 7.83493 89.9108 21.1094 89.9108Z" fill="#1D1D1B"/>
<path d="M162.301 121.165C164.286 124.758 161.86 124.955 154.742 128.006C144.776 132.276 119.409 136.466 106.821 115.111C94.1036 93.5406 50.5435 17.5465 48.859 14.5134C48.032 13.0307 46.9416 10.8035 55.34 5.77089C73.0066 -3.50689 87.0835 -2.80552 100.291 16.9128C107.476 27.6426 158.087 113.536 162.301 121.171V121.165Z" fill="#1D1D1B"/>
<path d="M65.5271 114.902C68.0754 115.308 70.7646 113.197 72.4676 111.216C86.324 95.5094 79.4938 63.5602 59.8363 56.1281C50.4272 52.4182 39.3396 53.2795 30.0224 56.9833C26.592 58.5152 22.5735 60.2871 22.1692 63.8555C22.0038 66.341 23.8476 68.5559 25.3791 70.4077C28.9443 74.5729 32.4849 78.7934 36.0011 83.0386C43.9462 92.5932 51.8606 102.332 60.1916 111.499C61.625 113.025 63.3709 114.594 65.4475 114.889L65.5333 114.902H65.5271Z" fill="#1D1D1B"/>
</svg>
